<?xml version="1.0" encoding="UTF-8" standalone="no"?>
<!-- Generator: Adobe Illustrator 18.1.1, SVG Export Plug-In . SVG Version: 6.00 Build 0)  -->

<svg
   xmlns:dc="http://purl.org/dc/elements/1.1/"
   xmlns:cc="http://creativecommons.org/ns#"
   xmlns:rdf="http://www.w3.org/1999/02/22-rdf-syntax-ns#"
   xmlns:svg="http://www.w3.org/2000/svg"
   xmlns="http://www.w3.org/2000/svg"
   xmlns:sodipodi="http://sodipodi.sourceforge.net/DTD/sodipodi-0.dtd"
   xmlns:inkscape="http://www.inkscape.org/namespaces/inkscape"
   version="1.1"
   x="0px"
   y="0px"
   viewBox="0 0 595.28 841.89"
   enable-background="new 0 0 595.28 841.89"
   xml:space="preserve"
   id="svg2"
   inkscape:version="0.48.2 r9819"
   width="100%"
   height="100%"
   sodipodi:docname="spiral.svg"><metadata
   id="metadata23"><rdf:RDF><cc:Work
       rdf:about=""><dc:format>image/svg+xml</dc:format><dc:type
         rdf:resource="http://purl.org/dc/dcmitype/StillImage" /><dc:title></dc:title></cc:Work></rdf:RDF></metadata><defs
   id="defs21" /><sodipodi:namedview
   pagecolor="#ffffff"
   bordercolor="#666666"
   borderopacity="1"
   objecttolerance="10"
   gridtolerance="10"
   guidetolerance="10"
   inkscape:pageopacity="0"
   inkscape:pageshadow="2"
   inkscape:window-width="1239"
   inkscape:window-height="595"
   id="namedview19"
   showgrid="false"
   inkscape:zoom="64"
   inkscape:cx="0.75751"
   inkscape:cy="0.84848"
   inkscape:window-x="0"
   inkscape:window-y="0"
   inkscape:window-maximized="0"
   inkscape:current-layer="Gal3"><inkscape:grid
     type="xygrid"
     id="grid3789"
     empspacing="5"
     visible="true"
     enabled="true"
     snapvisiblegridlinesonly="true"
     spacingx="0.25px"
     spacingy="0.25px" /></sodipodi:namedview>
<g
   id="Gal3"
   style="fill:#000000;fill-opacity:1">
	
<path
   style="fill:#000000;fill-opacity:1;stroke:none"
   d="m -1.125,838.09 c -2.071,0 -3.75,1.68 -3.75,3.79 0,0 0,0.5 0.5,0.5 0.5,0 0.5,-0.5 0.5,-0.5 0,-1.51 1.231,-2.69 2.75,-2.69 0.25086,0 0.45661,0 0.71876,0.12 -1.25926,0.19 -2.21876,1.19 -2.21876,2.57 0,2.1 1.67996,3.81 3.75,3.81 2.07,0 3.75,-1.71 3.75,-3.81 0,0 0,-0.5 -0.5,-0.5 -0.5,0 -0.5,0.49 -0.5,0.5 0,1.5 -1.23,2.71 -2.75,2.71 -0.26204,0 -0.51004,0 -0.75004,-0.12 1.26404,-0.19 2.25004,-1.31 2.25004,-2.59 0,-2.11 -1.68004,-3.79 -3.75,-3.79 z m 1.12496053,2.19 C 0.85476,840.26 1.6562,840.89 1.625,841.88 c 0,0.9 -0.73504,1.71 -1.62503947,1.71 C -0.90204,843.59 -1.625,842.78 -1.625,841.88 c 0,-0.92 0.72296,-1.6 1.62496053,-1.6 z"
   id="path3836"
   inkscape:connector-curvature="0"
   sodipodi:nodetypes="scscscsscssscssccssc" /></g>


</svg>